<svg width="100mm" height="100mm" version="1.1" viewBox="0 0 100 100" xmlns="http://www.w3.org/2000/svg">
 <defs>
  <clipPath id="clipPath23">
   <path d="m0 421h421v-421h-421z"/>
  </clipPath>
 </defs>
 <g transform="matrix(.25 0 0 -.25 -2.625 102.62)" clip-path="url(#clipPath23)">
  <g transform="translate(410.5,210.5)">
   <path d="m0 0c0-110.46-89.543-200-200-200s-200 89.543-200 200 89.543 200 200 200 200-89.543 200-200" fill="#17194a"/>
  </g>
  <g transform="translate(214.89 139.83)">
   <path d="m0 0v75.258h83.179c-6.17-41.185-40.808-73.178-83.179-75.258m110.51 88.435c0 7.278-5.899 13.178-13.177 13.178h-101.73c-7.278 0-13.178-5.9-13.178-13.178 0-5.735 3.67-10.6 8.785-12.411v-76.025c-46.793 2.297-84.157 41.083-84.157 88.436 0 48.826 39.723 88.55 88.55 88.55 20.726 0 40.881-7.306 56.753-20.574 5.585-4.668 13.893-3.925 18.562 1.659 4.667 5.583 3.925 13.894-1.66 18.562-20.603 17.222-46.761 26.708-73.655 26.708-63.359 0-114.9-51.546-114.9-114.9 0-61.884 49.183-112.47 110.51-114.79v-19.42h-34.36c-2.425 0-4.392-1.966-4.392-4.393 0-2.426 1.967-4.392 4.392-4.392h77.505c2.425 0 4.392 1.966 4.392 4.392 0 2.427-1.967 4.393-4.392 4.393h-34.36v19.42c61.328 2.32 110.51 52.907 110.51 114.79" fill="#fff"/>
  </g>
  <g transform="translate(236.24 76.891)">
   <path d="m0 0h-51.472c-2.426 0-4.392-1.966-4.392-4.392 0-2.427 1.966-4.393 4.392-4.393h51.472c2.426 0 4.392 1.966 4.392 4.393 0 2.426-1.966 4.392-4.392 4.392" fill="#fff"/>
  </g>
  <g transform="translate(223.22 59.143)">
   <path d="m0 0h-25.44c-2.426 0-4.393-1.966-4.393-4.392 0-2.427 1.967-4.393 4.393-4.393h25.44c2.426 0 4.392 1.966 4.392 4.393 0 2.426-1.966 4.392-4.392 4.392" fill="#fff"/>
  </g>
 </g>
</svg>
